<svg viewBox="0 0 48 48" fill="none" xmlns="http://www.w3.org/2000/svg">
<rect x="18" y="11" width="12" height="12" rx="6" stroke="#333333" stroke-width="2"/>
<path d="M6.16795 41.4453C5.8616 41.9048 5.98577 42.5257 6.4453 42.8321C6.90483 43.1384 7.5257 43.0142 7.83205 42.5547L6.16795 41.4453ZM7.83205 42.5547L21.8321 21.5547L20.1679 20.4453L6.16795 41.4453L7.83205 42.5547Z" fill="#333333"/>
<path d="M41.8321 41.4453C42.1384 41.9048 42.0142 42.5257 41.5547 42.8321C41.0952 43.1384 40.4743 43.0142 40.1679 42.5547L41.8321 41.4453ZM40.1679 42.5547L26.1679 21.5547L27.8321 20.4453L41.8321 41.4453L40.1679 42.5547Z" fill="#333333"/>
<path d="M24 9.99994V5.99998" stroke="#333333" stroke-width="2" stroke-linecap="round"/>
<path d="M42 27C37.6023 33.1323 31.1682 37 24 37C16.8318 37 10.3977 33.1323 6 27" stroke="#404BF5" stroke-width="2" stroke-linecap="round" stroke-linejoin="round" stroke-dasharray="4 6"/>
</svg>
